<svg version="1.2" xmlns="http://www.w3.org/2000/svg" viewBox="0 0 1000 1000" width="250" height="250"><defs><linearGradient id="P" gradientUnits="userSpaceOnUse"/><linearGradient id="g1" x2="1" href="#P" gradientTransform="matrix(17.455,1000,-1000,17.455,491.272,0)"><stop stop-color="#60a5fa"/><stop offset="1" stop-color="#1d4ed8"/></linearGradient></defs><style>.a{fill:url(#g1)}.b{fill:#fff}</style><path fill-rule="evenodd" class="a" d="m500 1000c-276.5 0-500-223.5-500-500 0-276.5 223.5-500 500-500 276.5 0 500 223.5 500 500 0 276.5-223.5 500-500 500z"/><path class="b" d="m112.3 518.5q-10-12-10-29 0-17 10-32 35-17 63.5-36.5 29-19.5 53-36.5 24.5-17.5 45-28 21-11 39-11 15.5 0 25.5 14.5 10.5 14.5 17 44.5-28 9.5-56 24.5-28 15-55 31-26.5 16-52.5 28 26 12 52.5 28 26.5 15.5 54 30.5 28 14.5 57 25-6.5 30-17 44.5-10 14.5-25.5 14.5-18 0-39-10.5-20.5-11-45-28-24-17.5-53-37-28.5-19.5-63.5-36.5zm442-280.5q24 9.5 39.5 28.5 16 19 16 39 0 10-7.5 34-7 24-19 57-12 33-27 72.5-15 39-30.5 80.5-15 41-28.5 81-13.5 39.5-23 74-9.5 34-13 58.5-21-2-38-10.5-16.5-9-26-23-9-14-9-30.5 0-11.5 8-36.5 8.5-25.5 22-60 13.5-34.5 30-74.5 16.5-40.5 33.5-82 17.5-42 32.5-81 15-39.5 25.5-72 10.5-33 14.5-55zm332 219.5q10 12 10 29 0 17-10 32.5-34.5 16.5-64 36-29 19.5-53.5 37-24 17-45 28-20.5 10.5-38 10.5-15.5 0-26-14.5-10-14.5-16.5-44.5 27.5-9.5 55.5-24.5 28-15 55-31 27.5-16 52.5-28-25-12-52-27.5-27-16-55-31-27.5-15-56-25 6.5-30 16.5-44.5 10.5-14.5 26-14.5 17.5 0 38 11 21 10.5 45 28 24.5 17 53.5 36.5 29.5 19.5 64 36.5z"/></svg>