<svg version="1.2" xmlns="http://www.w3.org/2000/svg" viewBox="0 0 1000 1000" width="1000" height="1000"><style>.a{fill:#1d4ed8}.b{fill:#fff}</style><path class="a" d="m35.2 520.8q-12-14.4-12-34.8 0-20.4 12-38.4 42-20.4 76.2-43.8 34.8-23.4 63.6-43.8 29.4-21 54-33.6 25.2-13.2 46.8-13.2 18.6 0 30.6 17.4 12.6 17.4 20.4 53.4-33.6 11.4-67.2 29.4-33.6 18-66 37.2-31.8 19.2-63 33.6 31.2 14.4 63 33.6 31.8 18.6 64.8 36.6 33.6 17.4 68.4 30-7.8 36-20.4 53.4-12 17.4-30.6 17.4-21.6 0-46.8-12.6-24.6-13.2-54-33.6-28.8-21-63.6-44.4-34.2-23.4-76.2-43.8zm928.8-73.2q12 14.4 12 34.8 0 20.4-12 39-41.4 19.8-76.8 43.2-34.8 23.4-64.2 44.4-28.8 20.4-54 33.6-24.6 12.6-45.6 12.6-18.6 0-31.2-17.4-12-17.4-19.8-53.4 33-11.4 66.6-29.4 33.6-18 66-37.2 33-19.2 63-33.6-30-14.4-62.4-33-32.4-19.2-66-37.2-33-18-67.2-30 7.8-36 19.8-53.4 12.6-17.4 31.2-17.4 21 0 45.6 13.2 25.2 12.6 54 33.6 29.4 20.4 64.2 43.8 35.4 23.4 76.8 43.8z"/><path class="b" d="m565.6 184.2q28.8 11.4 47.4 34.2 19.2 22.8 19.2 46.8 0 12-9 40.8-8.4 28.8-22.8 68.4-14.4 39.6-32.4 87-18 46.8-36.6 96.6-18 49.2-34.2 97.2-16.2 47.4-27.6 88.8-11.4 40.8-15.6 70.2-25.2-2.4-45.6-12.6-19.8-10.8-31.2-27.6-10.8-16.8-10.8-36.6 0-13.8 9.6-43.8 10.2-30.6 26.4-72 16.2-41.4 36-89.4 19.8-48.6 40.2-98.4 21-50.4 39-97.2 18-47.4 30.6-86.4 12.6-39.6 17.4-66z"/></svg>